<svg width="120" height="140" viewBox="0 0 120 140" fill="none" xmlns="http://www.w3.org/2000/svg">
<path d="M50.0003 110.833C48.832 110.836 47.6998 110.361 46.8003 109.492C46.294 109.002 45.8755 108.401 45.5687 107.722C45.2619 107.043 45.073 106.301 45.0126 105.536C44.9522 104.772 45.0216 104.002 45.2168 103.269C45.412 102.537 45.7292 101.856 46.1503 101.267L68.5503 70L46.9503 38.675C46.5349 38.0783 46.2248 37.3917 46.0376 36.6548C45.8505 35.9178 45.79 35.1449 45.8597 34.3806C45.9294 33.6162 46.1279 32.8755 46.4437 32.201C46.7596 31.5264 47.1866 30.9314 47.7003 30.45C48.2176 29.9189 48.8234 29.5184 49.4797 29.2734C50.136 29.0285 50.8287 28.9445 51.5141 29.0266C52.1996 29.1088 52.8631 29.3554 53.463 29.7509C54.0629 30.1464 54.5863 30.6823 55.0003 31.325L79.1503 66.325C79.8857 67.3688 80.2877 68.678 80.2877 70.0291C80.2877 71.3803 79.8857 72.6895 79.1503 73.7333L54.1503 108.733C53.6487 109.439 53.0115 109.997 52.2905 110.362C51.5694 110.727 50.7848 110.888 50.0003 110.833Z" fill="url(#paint0_linear)" fill-opacity="0.2"/>
<path d="M50.0003 110.833C48.832 110.836 47.6998 110.361 46.8003 109.492C46.294 109.002 45.8755 108.401 45.5687 107.722C45.2619 107.043 45.073 106.301 45.0126 105.536C44.9522 104.772 45.0216 104.002 45.2168 103.269C45.412 102.537 45.7292 101.856 46.1503 101.267L68.5503 70L46.9503 38.675C46.5349 38.0783 46.2248 37.3917 46.0376 36.6548C45.8505 35.9178 45.79 35.1449 45.8597 34.3806C45.9294 33.6162 46.1279 32.8755 46.4437 32.201C46.7596 31.5264 47.1866 30.9314 47.7003 30.45C48.2176 29.9189 48.8234 29.5184 49.4797 29.2734C50.136 29.0285 50.8287 28.9445 51.5141 29.0266C52.1996 29.1088 52.8631 29.3554 53.463 29.7509C54.0629 30.1464 54.5863 30.6823 55.0003 31.325L79.1503 66.325C79.8857 67.3688 80.2877 68.678 80.2877 70.0291C80.2877 71.3803 79.8857 72.6895 79.1503 73.7333L54.1503 108.733C53.6487 109.439 53.0115 109.997 52.2905 110.362C51.5694 110.727 50.7848 110.888 50.0003 110.833Z" fill="white" fill-opacity="0.2"/>
<defs>
<linearGradient id="paint0_linear" x1="80.2877" y1="110.844" x2="43.3979" y2="110.077" gradientUnits="userSpaceOnUse">
<stop stop-color="#19EC15"/>
<stop offset="0.958581" stop-color="#FFA721"/>
</linearGradient>
</defs>
</svg>
