<svg width="120" height="140" viewBox="0 0 120 140" fill="none" xmlns="http://www.w3.org/2000/svg">
<path d="M69.9998 110.833C71.1681 110.836 72.3002 110.361 73.1998 109.492C73.7061 109.002 74.1246 108.401 74.4314 107.722C74.7381 107.043 74.9271 106.301 74.9875 105.536C75.0479 104.772 74.9785 104.002 74.7832 103.269C74.588 102.537 74.2708 101.856 73.8498 101.267L51.4498 70L73.0498 38.675C73.4651 38.0783 73.7753 37.3917 73.9625 36.6548C74.1496 35.9178 74.2101 35.1449 74.1404 34.3806C74.0707 33.6162 73.8722 32.8755 73.5563 32.201C73.2405 31.5264 72.8134 30.9314 72.2998 30.45C71.7825 29.9189 71.1766 29.5184 70.5203 29.2734C69.864 29.0285 69.1714 28.9445 68.4859 29.0266C67.8005 29.1088 67.137 29.3554 66.537 29.7509C65.9371 30.1464 65.4138 30.6823 64.9998 31.325L40.8498 66.325C40.1144 67.3688 39.7124 68.678 39.7124 70.0291C39.7124 71.3803 40.1144 72.6895 40.8498 73.7333L65.8498 108.733C66.3514 109.439 66.9886 109.997 67.7096 110.362C68.4307 110.727 69.2153 110.888 69.9998 110.833Z" fill="url(#paint0_linear)" fill-opacity="0.2"/>
<path d="M69.9998 110.833C71.1681 110.836 72.3002 110.361 73.1998 109.492C73.7061 109.002 74.1246 108.401 74.4314 107.722C74.7381 107.043 74.9271 106.301 74.9875 105.536C75.0479 104.772 74.9785 104.002 74.7832 103.269C74.588 102.537 74.2708 101.856 73.8498 101.267L51.4498 70L73.0498 38.675C73.4651 38.0783 73.7753 37.3917 73.9625 36.6548C74.1496 35.9178 74.2101 35.1449 74.1404 34.3806C74.0707 33.6162 73.8722 32.8755 73.5563 32.201C73.2405 31.5264 72.8134 30.9314 72.2998 30.45C71.7825 29.9189 71.1766 29.5184 70.5203 29.2734C69.864 29.0285 69.1714 28.9445 68.4859 29.0266C67.8005 29.1088 67.137 29.3554 66.537 29.7509C65.9371 30.1464 65.4138 30.6823 64.9998 31.325L40.8498 66.325C40.1144 67.3688 39.7124 68.678 39.7124 70.0291C39.7124 71.3803 40.1144 72.6895 40.8498 73.7333L65.8498 108.733C66.3514 109.439 66.9886 109.997 67.7096 110.362C68.4307 110.727 69.2153 110.888 69.9998 110.833Z" fill="white" fill-opacity="0.2"/>
<defs>
<linearGradient id="paint0_linear" x1="39.7124" y1="110.844" x2="76.6022" y2="110.077" gradientUnits="userSpaceOnUse">
<stop stop-color="#19EC15"/>
<stop offset="0.958581" stop-color="#FFA721"/>
</linearGradient>
</defs>
</svg>
