<svg width="76" height="75" viewBox="0 0 76 75" fill="none" xmlns="http://www.w3.org/2000/svg">
<path d="M38 24.6094C35.4505 24.6094 32.9582 25.3654 30.8384 26.7818C28.7185 28.1983 27.0663 30.2115 26.0906 32.567C25.115 34.9224 24.8597 37.5143 25.3571 40.0148C25.8545 42.5154 27.0822 44.8123 28.885 46.615C30.6877 48.4178 32.9846 49.6455 35.4852 50.1429C37.9857 50.6403 40.5776 50.385 42.933 49.4094C45.2885 48.4337 47.3017 46.7815 48.7182 44.6616C50.1346 42.5418 50.8906 40.0495 50.8906 37.5C50.8867 34.0824 49.5274 30.8059 47.1108 28.3892C44.6941 25.9726 41.4176 24.6133 38 24.6094ZM38 48.0469C35.914 48.0469 33.8749 47.4283 32.1405 46.2694C30.406 45.1105 29.0542 43.4633 28.256 41.5361C27.4577 39.6089 27.2488 37.4883 27.6558 35.4424C28.0627 33.3965 29.0672 31.5172 30.5422 30.0422C32.0172 28.5672 33.8965 27.5627 35.9424 27.1558C37.9883 26.7488 40.1089 26.9577 42.0361 27.756C43.9633 28.5542 45.6105 29.906 46.7694 31.6405C47.9283 33.3749 48.5469 35.414 48.5469 37.5C48.5438 40.2963 47.4316 42.9771 45.4543 44.9543C43.4771 46.9316 40.7963 48.0438 38 48.0469ZM50.8906 9.375H25.1094C21.0704 9.37957 17.1981 10.9861 14.3421 13.8421C11.4861 16.6981 9.87957 20.5704 9.875 24.6094V50.3906C9.87957 54.4296 11.4861 58.3019 14.3421 61.1579C17.1981 64.0139 21.0704 65.6204 25.1094 65.625H50.8906C54.9296 65.6204 58.8019 64.0139 61.6579 61.1579C64.5139 58.3019 66.1204 54.4296 66.125 50.3906V24.6094C66.1204 20.5704 64.5139 16.6981 61.6579 13.8421C58.8019 10.9861 54.9296 9.37957 50.8906 9.375ZM63.7812 50.3906C63.7774 53.8082 62.418 57.0848 60.0014 59.5014C57.5848 61.918 54.3082 63.2774 50.8906 63.2812H25.1094C21.6918 63.2774 18.4152 61.918 15.9986 59.5014C13.582 57.0848 12.2226 53.8082 12.2188 50.3906V24.6094C12.2226 21.1918 13.582 17.9152 15.9986 15.4986C18.4152 13.082 21.6918 11.7226 25.1094 11.7188H50.8906C54.3082 11.7226 57.5848 13.082 60.0014 15.4986C62.418 17.9152 63.7774 21.1918 63.7812 24.6094V50.3906ZM55.5781 22.2656C55.5781 22.7292 55.4407 23.1823 55.1831 23.5677C54.9256 23.9532 54.5596 24.2536 54.1313 24.431C53.703 24.6084 53.2318 24.6548 52.7771 24.5643C52.3225 24.4739 51.9049 24.2507 51.5771 23.9229C51.2493 23.5951 51.0261 23.1775 50.9357 22.7229C50.8452 22.2682 50.8916 21.797 51.069 21.3687C51.2464 20.9404 51.5468 20.5744 51.9323 20.3169C52.3177 20.0593 52.7708 19.9219 53.2344 19.9219C53.8557 19.9227 54.4514 20.1698 54.8908 20.6092C55.3302 21.0486 55.5774 21.6443 55.5781 22.2656Z" fill="#777070"/>
</svg>
