<svg width="50" height="50" viewBox="0 0 50 50" fill="none" xmlns="http://www.w3.org/2000/svg">
<path d="M16.875 12.5781C16.875 13.5156 16.0937 14.2969 15.1562 14.2969H7.57812C6.64062 14.2969 5.85938 13.5156 5.85938 12.5781V10.4687C5.85938 9.53125 6.64062 8.75 7.57812 8.75H15.1562C16.0937 8.75 16.875 9.53125 16.875 10.4687V12.5781" fill="#212528"/>
<path d="M47.4219 12.4219C47.4219 12.8906 47.0312 13.3594 46.4844 13.3594H42.4219C41.9531 13.3594 41.4844 12.9687 41.4844 12.4219V11.3281C41.4844 10.8594 41.875 10.3906 42.4219 10.3906H46.4844C46.9531 10.3906 47.4219 10.7812 47.4219 11.3281V12.4219" fill="#212528"/>
<path d="M50 39.2969C50 41.6406 48.125 43.5156 45.7812 43.5156H4.21875C1.875 43.5156 0 41.6406 0 39.2969V38.0469H50V39.2969Z" fill="#212528"/>
<path d="M0 15.7031C0 13.3594 1.875 11.4844 4.21875 11.4844H45.7031C48.0469 11.4844 49.9219 13.3594 49.9219 15.7031V16.9531H0V15.7031Z" fill="#51575B"/>
<path d="M0 16.7969H50V38.9062H0V16.7969Z" fill="#3E4347"/>
<path d="M42.7344 14.0625H17.6562L20.1562 5.625C20.3906 5.15625 21.4063 4.375 22.0313 4.21875C25.8594 3.125 34.4531 3.125 38.2813 4.21875C38.9063 4.375 39.9219 5.15625 40.1563 5.625L42.7344 14.0625Z" fill="#51575B"/>
<path d="M41.4844 23.125H18.8281L21.0937 11.7187C21.25 11.0937 22.2656 10.0781 22.8125 9.84375C26.25 8.4375 34.0625 8.4375 37.5 9.84375C38.0469 10.0781 38.9844 11.0937 39.2188 11.7187L41.4844 23.125Z" fill="#3E4347"/>
<path d="M47.3438 29.375C47.3438 38.9062 39.6094 46.5625 30.1562 46.5625C20.7031 46.5625 12.9688 38.9062 12.9688 29.375C12.9688 19.9219 20.7031 12.1875 30.1562 12.1875C39.6875 12.1875 47.3438 19.9219 47.3438 29.375Z" fill="#788287"/>
<path d="M45.4688 29.375C45.4688 37.8125 38.5937 44.6875 30.1562 44.6875C21.7187 44.6875 14.8438 37.8125 14.8438 29.375C14.8438 20.9375 21.7187 14.0625 30.1562 14.0625C38.5937 14.1406 45.4688 20.9375 45.4688 29.375Z" fill="#212528"/>
<path d="M30.1562 41.7969C37.0167 41.7969 42.5781 36.2354 42.5781 29.375C42.5781 22.5146 37.0167 16.9531 30.1562 16.9531C23.2958 16.9531 17.7344 22.5146 17.7344 29.375C17.7344 36.2354 23.2958 41.7969 30.1562 41.7969Z" fill="#3E4347"/>
<path d="M30.1562 36.0938C33.8669 36.0938 36.875 33.0857 36.875 29.375C36.875 25.6643 33.8669 22.6562 30.1562 22.6562C26.4456 22.6562 23.4375 25.6643 23.4375 29.375C23.4375 33.0857 26.4456 36.0938 30.1562 36.0938Z" fill="#212528"/>
<path opacity="0.5" d="M39.2969 24.1406C39.2969 26.25 37.5781 27.9688 35.4688 27.9688C33.3594 27.9688 31.6406 26.25 31.6406 24.1406C31.6406 22.0313 33.3594 20.3125 35.4688 20.3125C37.5781 20.2344 39.2969 22.0313 39.2969 24.1406Z" fill="#F5F5F5"/>
<path opacity="0.5" d="M27.8125 34.2188C29.1501 34.2188 30.2344 33.1344 30.2344 31.7969C30.2344 30.4593 29.1501 29.375 27.8125 29.375C26.4749 29.375 25.3906 30.4593 25.3906 31.7969C25.3906 33.1344 26.4749 34.2188 27.8125 34.2188Z" fill="#F5F5F5"/>
<path opacity="0.5" d="M23.5156 37.5781C24.3354 37.5781 25 36.9135 25 36.0938C25 35.274 24.3354 34.6094 23.5156 34.6094C22.6958 34.6094 22.0312 35.274 22.0312 36.0938C22.0312 36.9135 22.6958 37.5781 23.5156 37.5781Z" fill="#F5F5F5"/>
<path d="M11.7188 35.3906C11.7188 36.3281 10.9375 37.1094 10 37.1094H2.8125C1.875 37.1094 1.09375 36.3281 1.09375 35.3906V20.2344C1.09375 19.2969 1.875 18.5156 2.8125 18.5156H10C10.9375 18.5156 11.7188 19.2969 11.7188 20.2344V35.3906Z" fill="#636C72"/>
<path d="M7.89063 17.0312C9.27134 17.0312 10.3906 15.912 10.3906 14.5313C10.3906 13.1505 9.27134 12.0312 7.89063 12.0312C6.50991 12.0312 5.39062 13.1505 5.39062 14.5313C5.39062 15.912 6.50991 17.0312 7.89063 17.0312Z" fill="#212528"/>
</svg>
