<svg width="76" height="76" viewBox="0 0 76 76" fill="none" xmlns="http://www.w3.org/2000/svg">
<path d="M10.7919 64.007H65.1397C69.5459 64.0022 73.1173 60.4314 73.1221 56.0247V19.1462C73.1173 14.7399 69.5459 11.1686 65.1397 11.1638H10.7919C6.3857 11.1686 2.81435 14.7399 2.80957 19.1462V56.0247C2.81435 60.4314 6.3857 64.0022 10.7919 64.007ZM10.7919 61.6293C9.56537 61.6309 8.37226 61.2275 7.39835 60.4813L23.6517 43.8569C23.9532 43.5538 24.0684 43.1123 23.9543 42.7009C23.8402 42.2891 23.5143 41.9706 23.1003 41.8661C22.6858 41.761 22.2474 41.8863 21.9513 42.1952L5.84965 58.6646C5.41444 57.8531 5.18676 56.946 5.18729 56.0247V21.767L32.8171 45.1625C35.7919 47.6947 40.1652 47.6936 43.1379 45.1577L70.7444 21.7441V56.0247C70.7454 56.9497 70.5161 57.8594 70.0777 58.6731L53.8795 42.192C53.4183 41.7281 52.6695 41.7233 52.2024 42.1814C51.7359 42.641 51.7274 43.3899 52.1838 43.8585L68.5264 60.4866C67.5535 61.2291 66.3636 61.6309 65.1397 61.6293H10.7919ZM10.7919 13.5415H65.1397C68.0397 13.5458 70.4588 15.7579 70.721 18.6467L41.6003 43.3447C39.5129 45.1248 36.4421 45.1259 34.3536 43.3474L5.20958 18.6696C5.45903 15.7717 7.88292 13.5458 10.7919 13.5415Z" fill="#777070"/>
</svg>
