<svg width="76" height="76" viewBox="0 0 76 76" fill="none" xmlns="http://www.w3.org/2000/svg">
<g clip-path="url(#clip0)">
<path d="M73.5319 58.0583L58.3517 47.9348C56.4253 46.6604 53.843 47.0797 52.4188 48.8984L47.9969 54.5838C47.4286 55.3331 46.3956 55.5504 45.5735 55.0937L44.7324 54.63C41.9441 53.1102 38.4746 51.218 31.4844 44.2253C24.4942 37.2326 22.5982 33.7606 21.0784 30.9773L20.6172 30.1362C20.1542 29.3143 20.3675 28.2769 21.1171 27.704L26.7986 23.2835C28.6165 21.8592 29.0364 19.2776 27.7635 17.3506L17.64 2.17033C16.3355 0.208028 13.7182 -0.381045 11.6986 0.832984L5.3508 4.64614C3.35627 5.81872 1.89296 7.71775 1.26771 9.9453C-1.01813 18.274 0.701484 32.6482 21.8759 53.8251C38.7197 70.6675 51.2591 75.1969 59.8778 75.1969C61.8614 75.2054 63.8371 74.9473 65.752 74.4296C67.98 73.8051 69.8793 72.3416 71.0512 70.3465L74.8681 64.0025C76.0839 61.9825 75.4951 59.3636 73.5319 58.0583ZM72.7145 62.72L68.9064 69.0679C68.0649 70.5079 66.6989 71.5667 65.0944 72.0225C57.4055 74.1334 43.9726 72.385 23.6443 52.0567C3.31599 31.7284 1.56767 18.2966 3.67863 10.6066C4.13501 9.00018 5.19511 7.63237 6.63688 6.78962L12.9847 2.98144C13.861 2.45418 14.997 2.70976 15.5631 3.56129L21.0623 11.8175L25.6779 18.7402C26.2307 19.5761 26.049 20.6964 25.2605 21.3149L19.5776 25.7354C17.8482 27.0579 17.3543 29.4506 18.4191 31.3496L18.8703 32.1695C20.4676 35.0991 22.4535 38.7435 29.7037 45.9925C36.9539 53.2414 40.5972 55.2275 43.5254 56.8246L44.3465 57.2771C46.2454 58.3417 48.6383 57.848 49.9607 56.1185L54.3812 50.4356C54.9999 49.6475 56.1197 49.4661 56.9559 50.0182L72.1348 60.1417C72.987 60.7074 73.2425 61.8439 72.7145 62.72Z" fill="#777070"/>
<path d="M42.9978 12.7064C54.7267 12.7195 64.2315 22.2245 64.2447 33.9533C64.2447 34.6436 64.8042 35.2031 65.4945 35.2031C66.1847 35.2031 66.7442 34.6436 66.7442 33.9533C66.7297 20.8445 56.1067 10.2213 42.9978 10.2069C42.3075 10.2069 41.748 10.7664 41.748 11.4567C41.748 12.147 42.3075 12.7064 42.9978 12.7064Z" fill="#777070"/>
<path d="M42.9978 20.2053C50.5869 20.2143 56.7369 26.3642 56.7458 33.9533C56.7458 34.6436 57.3055 35.2031 57.9956 35.2031C58.6859 35.2031 59.2453 34.6436 59.2453 33.9533C59.235 24.9843 51.9667 17.7161 42.9978 17.7058C42.3075 17.7058 41.748 18.2653 41.748 18.9556C41.748 19.6459 42.3075 20.2053 42.9978 20.2053Z" fill="#777070"/>
<path d="M42.9978 27.7042C46.4473 27.7083 49.2427 30.5037 49.2469 33.9534C49.2469 34.6436 49.8066 35.2031 50.4967 35.2031C51.1868 35.2031 51.7465 34.6436 51.7465 33.9534C51.7409 29.1239 47.8273 25.2101 42.9978 25.2047C42.3075 25.2047 41.748 25.7642 41.748 26.4545C41.748 27.1448 42.3075 27.7042 42.9978 27.7042Z" fill="#777070"/>
</g>
<defs>
<clipPath id="clip0">
<rect width="75" height="75" fill="white" transform="translate(0.5 0.200012)"/>
</clipPath>
</defs>
</svg>
