<svg width="76" height="75" viewBox="0 0 76 75" fill="none" xmlns="http://www.w3.org/2000/svg">
<path d="M69.7699 9.54C69.41 9.23406 68.9741 9.03102 68.5084 8.95234C68.0426 8.87366 67.5643 8.92226 67.1239 9.093L6.98288 32.292C6.4885 32.4859 6.06436 32.8249 5.76623 33.2643C5.4681 33.7038 5.30993 34.2232 5.31253 34.7542C5.31513 35.2853 5.47836 35.8031 5.78078 36.2396C6.08319 36.6761 6.51062 37.0109 7.00688 37.2V37.2L21.2479 42.513L26.7889 60.333C26.9161 60.7435 27.1421 61.1165 27.4471 61.4192C27.7521 61.722 28.1268 61.9452 28.5382 62.0693C28.9496 62.1934 29.3853 62.2146 29.8068 62.1311C30.2283 62.0475 30.6229 61.8617 30.9559 61.59L39.1249 54.93C39.3902 54.7186 39.7181 54.6011 40.0573 54.5957C40.3965 54.5902 40.7279 54.6972 40.9999 54.9L55.7329 65.595C56.1808 65.9216 56.7206 66.098 57.2749 66.099C57.6 66.0981 57.9222 66.0381 58.2259 65.922C58.6353 65.7648 58.9986 65.5071 59.2822 65.1726C59.5658 64.8381 59.7607 64.4376 59.8489 64.008L70.6489 12.09C70.7471 11.6252 70.7172 11.1424 70.5624 10.6933C70.4076 10.2442 70.1337 9.84553 69.7699 9.54V9.54ZM68.8699 11.712L58.0999 63.63C58.0729 63.7651 58.0119 63.8911 57.9227 63.9961C57.8335 64.1011 57.7189 64.1816 57.5899 64.23C57.4609 64.2809 57.3212 64.2982 57.1837 64.2804C57.0463 64.2626 56.9156 64.2101 56.8039 64.128L42.0589 53.43C41.463 52.998 40.7412 52.775 40.0055 52.7956C39.2698 52.8162 38.5616 53.0793 37.9909 53.544L29.8189 60.204C29.7147 60.2905 29.5907 60.3498 29.458 60.3766C29.3253 60.4035 29.188 60.397 29.0584 60.3577C28.9288 60.3185 28.811 60.2478 28.7154 60.1518C28.6199 60.0559 28.5496 59.9377 28.5109 59.808L22.8379 41.568C22.797 41.4366 22.7265 41.3164 22.6318 41.2166C22.5371 41.1167 22.4209 41.0399 22.2919 40.992L7.63988 35.523C7.48192 35.4639 7.34577 35.358 7.24965 35.2194C7.15353 35.0808 7.10202 34.9162 7.10202 34.7475C7.10202 34.5788 7.15353 34.4142 7.24965 34.2756C7.34577 34.137 7.48192 34.0311 7.63988 33.972L67.7749 10.77C67.913 10.715 68.0636 10.699 68.2102 10.7239C68.3567 10.7488 68.4936 10.8135 68.6059 10.911C68.7185 11.0056 68.8035 11.1288 68.8521 11.2676C68.9007 11.4065 68.911 11.5558 68.8819 11.7L68.8699 11.712ZM54.9049 20.517L26.2639 38.157C25.5636 38.591 25.0236 39.2411 24.7254 40.009C24.4272 40.777 24.387 41.6212 24.6109 42.414L27.7069 53.295C27.8011 53.6402 28.0065 53.9449 28.2911 54.1618C28.5758 54.3786 28.924 54.4958 29.2819 54.495H29.4049C29.7801 54.4689 30.1347 54.3135 30.4082 54.0553C30.6817 53.7971 30.8572 53.4521 30.9049 53.079L31.7149 47.1C31.8382 46.1809 32.276 45.3329 32.9539 44.7L56.5999 22.734C56.8585 22.4988 57.0197 22.1753 57.0516 21.8272C57.0835 21.479 56.9838 21.1316 56.7722 20.8533C56.5606 20.5751 56.2524 20.3862 55.9084 20.3239C55.5644 20.2617 55.2096 20.3306 54.9139 20.517H54.9049ZM31.7299 43.386C30.7464 44.2999 30.1102 45.5266 29.9299 46.857L29.2249 52.065L26.3389 41.919C26.221 41.5043 26.2413 41.0626 26.3966 40.6605C26.552 40.2584 26.8339 39.9178 27.1999 39.69L52.3999 24.177L31.7299 43.386Z" fill="#777070"/>
</svg>
