<svg width="50" height="50" viewBox="0 0 50 50" fill="none" xmlns="http://www.w3.org/2000/svg">
<path d="M4.6875 46.0938C4.56328 46.0941 4.44077 46.0648 4.33014 46.0083C4.21951 45.9518 4.12395 45.8697 4.05138 45.7689C3.97882 45.668 3.93134 45.5514 3.9129 45.4285C3.89445 45.3057 3.90556 45.1802 3.94532 45.0625L7.03125 35.9844C4.60344 31.9455 3.59249 27.212 4.15853 22.5337C4.72457 17.8554 6.83524 13.4996 10.1563 10.1563C14.0991 6.23089 19.4363 4.0271 25 4.0271C30.5637 4.0271 35.9009 6.23089 39.8438 10.1563C43.3194 13.6819 45.441 18.32 45.8354 23.2551C46.2299 28.1902 44.872 33.1063 42.0005 37.1393C39.129 41.1723 34.9276 44.064 30.1351 45.3059C25.3426 46.5478 20.2657 46.0605 15.7969 43.9297L4.84375 46.0938H4.6875ZM15.8984 42.3047C16.0207 42.3054 16.1412 42.3349 16.25 42.3906C20.3833 44.4523 25.1147 44.9786 29.6 43.8755C34.0853 42.7724 38.0329 40.1117 40.7386 36.3681C43.4442 32.6245 44.7319 28.0415 44.372 23.4366C44.012 18.8316 42.0279 14.5043 38.7734 11.2266C36.9648 9.41758 34.8176 7.98258 32.4543 7.00354C30.091 6.0245 27.558 5.52059 25 5.52059C22.442 5.52059 19.909 6.0245 17.5457 7.00354C15.1824 7.98258 13.0352 9.41758 11.2266 11.2266C8.11488 14.3708 6.15877 18.4756 5.67648 22.8729C5.19419 27.2702 6.21412 31.7013 8.57032 35.4453C8.63285 35.5443 8.67234 35.6561 8.68586 35.7724C8.69938 35.8887 8.6866 36.0065 8.64844 36.1172L5.86719 44.3125L15.7578 42.3438L15.8984 42.3047Z" fill="black"/>
<path d="M30.6015 35.9374C30.3621 35.9504 30.1222 35.9504 29.8828 35.9374C25.7344 35.4842 20.5078 31.3827 19.0312 29.9374C17.5859 28.492 13.4765 23.2342 13.0312 19.0858C12.6719 15.7733 14.8828 13.5233 15.8515 12.703C16.2847 12.3309 16.8436 12.1381 17.414 12.1639L19.5234 12.2342C19.6777 12.2399 19.8268 12.2912 19.9519 12.3816C20.0771 12.472 20.1726 12.5974 20.2265 12.742C20.6953 13.9842 22.2109 18.117 22.2109 19.1874C22.2109 20.1249 21.3828 20.8514 20.6484 21.492C20.4922 21.6249 20.2812 21.8124 20.1562 21.9452C20.9458 23.3882 21.8916 24.74 22.9765 25.9764C24.213 27.0612 25.5649 28.007 27.0078 28.7967C27.1406 28.6639 27.3281 28.453 27.4609 28.3045C28.1015 27.5702 28.8281 26.742 29.8047 26.742C30.875 26.742 35.0078 28.2577 36.25 28.7264C36.3946 28.7803 36.52 28.8759 36.6104 29.001C36.7008 29.1262 36.7521 29.2753 36.7578 29.4295L36.8281 31.5389C36.8441 32.1079 36.6525 32.6633 36.289 33.1014C35.5987 33.953 34.7338 34.6468 33.7528 35.136C32.7717 35.6252 31.6971 35.8985 30.6015 35.9374ZM20.1406 28.8124C21.4297 30.1014 26.3906 33.9686 30.0547 34.367C32.625 34.6405 34.4219 32.867 35.0781 32.0936C35.1953 31.9478 35.2562 31.7649 35.25 31.578L35.1953 30.0155C33.4391 29.3112 31.6318 28.7418 29.789 28.3124C29.539 28.3124 28.9219 29.0389 28.6562 29.3436C28.125 29.953 27.7031 30.4295 27.0937 30.4295C26.1015 30.4295 22.6406 27.867 21.8672 27.0936C21.0937 26.3202 18.5547 22.8358 18.5547 21.8749C18.5547 21.2889 19.0312 20.867 19.6406 20.3124C19.9375 20.0467 20.6484 19.4374 20.6719 19.1795C20.2422 17.3368 19.6729 15.5295 18.9687 13.7733L17.4062 13.7186C17.2193 13.7123 17.0364 13.7733 16.8906 13.8905C16.1094 14.5467 14.3359 16.3436 14.6172 18.9061C15.0156 22.5936 18.8828 27.4999 20.1719 28.8202L20.1406 28.8124Z" fill="black"/>
</svg>
