<svg width="76" height="75" viewBox="0 0 76 75" fill="none" xmlns="http://www.w3.org/2000/svg">
<path d="M7.53135 69.1406C7.34501 69.1411 7.16125 69.0971 6.9953 69.0124C6.82936 68.9276 6.68601 68.8045 6.57717 68.6533C6.46832 68.502 6.39711 68.327 6.36944 68.1427C6.34177 67.9585 6.35844 67.7703 6.41807 67.5937L11.047 53.9765C7.40525 47.9182 5.88883 40.818 6.73789 33.8005C7.58695 26.783 10.753 20.2494 15.7345 15.2343C21.6488 9.34627 29.6546 6.04059 38.0001 6.04059C46.3456 6.04059 54.3514 9.34627 60.2657 15.2343C65.4792 20.5228 68.6616 27.4799 69.2532 34.8826C69.8449 42.2852 67.8081 49.6595 63.5008 55.709C59.1936 61.7584 52.8916 66.0959 45.7028 67.9588C38.514 69.8217 30.8986 69.0907 24.1954 65.8945L7.76572 69.1406H7.53135ZM24.3478 63.457C24.5312 63.4581 24.7118 63.5022 24.8751 63.5859C31.0751 66.6784 38.1721 67.4678 44.9001 65.8132C51.6281 64.1585 57.5495 60.1676 61.6079 54.5522C65.6664 48.9368 67.598 42.0622 67.0581 35.1548C66.5182 28.2474 63.5419 21.7564 58.6603 16.8398C55.9473 14.1263 52.7264 11.9738 49.1815 10.5053C45.6366 9.03669 41.8372 8.28082 38.0001 8.28082C34.163 8.28082 30.3636 9.03669 26.8187 10.5053C23.2738 11.9738 20.0529 14.1263 17.3399 16.8398C12.6724 21.5562 9.73824 27.7133 9.01481 34.3093C8.29138 40.9053 9.82127 47.552 13.3556 53.1679C13.4494 53.3164 13.5086 53.4841 13.5289 53.6585C13.5492 53.8329 13.53 54.0097 13.4728 54.1757L9.30088 66.4687L24.1368 63.5156L24.3478 63.457Z" fill="#777070"/>
<path d="M46.4024 53.9062C46.0433 53.9258 45.6834 53.9258 45.3243 53.9062C39.1016 53.2265 31.2618 47.0742 29.0469 44.9062C26.879 42.7382 20.7149 34.8515 20.0469 28.6289C19.5079 23.6601 22.8243 20.2851 24.2774 19.0547C24.9272 18.4965 25.7654 18.2073 26.6212 18.2461L29.7852 18.3515C30.0166 18.3601 30.2403 18.437 30.428 18.5726C30.6157 18.7082 30.759 18.8963 30.8399 19.1133C31.543 20.9765 33.8165 27.1757 33.8165 28.7812C33.8165 30.1875 32.5743 31.2773 31.4727 32.2383C31.2383 32.4375 30.9219 32.7187 30.7344 32.9179C31.9188 35.0824 33.3375 37.1102 34.9649 38.9648C36.8197 40.592 38.8474 42.0106 41.0118 43.1953C41.211 42.9961 41.4922 42.6797 41.6915 42.457C42.6524 41.3554 43.7422 40.1132 45.2071 40.1132C46.8126 40.1132 53.0118 42.3867 54.8751 43.0898C55.092 43.1707 55.2801 43.314 55.4157 43.5017C55.5513 43.6894 55.6282 43.9131 55.6368 44.1445L55.7422 47.3086C55.7663 48.1621 55.4789 48.9952 54.9337 49.6523C53.8981 50.9297 52.6009 51.9704 51.1292 52.7042C49.6576 53.438 48.0458 53.8479 46.4024 53.9062ZM30.711 43.2187C32.6446 45.1523 40.086 50.9531 45.5821 51.5508C49.4376 51.9609 52.1329 49.3008 53.1172 48.1406C53.293 47.9219 53.3845 47.6475 53.3751 47.3672L53.293 45.0234C50.6588 43.967 47.9478 43.113 45.1837 42.4687C44.8087 42.4687 43.8829 43.5586 43.4844 44.0156C42.6876 44.9297 42.0547 45.6445 41.1407 45.6445C39.6524 45.6445 34.461 41.8007 33.3008 40.6406C32.1407 39.4804 28.3321 34.2539 28.3321 32.8125C28.3321 31.9336 29.0469 31.3007 29.961 30.4687C30.4063 30.0703 31.4727 29.1562 31.5079 28.7695C30.8634 26.0054 30.0094 23.2945 28.9532 20.6601L26.6094 20.5781C26.3291 20.5687 26.0546 20.6602 25.836 20.8359C24.6641 21.8203 22.004 24.5156 22.4258 28.3593C23.0235 33.8906 28.8243 41.25 30.7579 43.2304L30.711 43.2187Z" fill="#777070"/>
</svg>
