<svg width="70" height="70" viewBox="0 0 70 70" fill="none" xmlns="http://www.w3.org/2000/svg">
<path d="M40.4687 30.625C39.865 30.625 39.375 30.135 39.375 29.5312C39.375 25.3094 42.8094 21.875 47.0312 21.875C50.2337 21.875 53.1234 23.8941 54.2237 26.8997C54.4316 27.4684 54.1384 28.0963 53.5719 28.3041C53.0053 28.5097 52.3753 28.2187 52.1675 27.6522C51.3822 25.5041 49.3194 24.0625 47.0312 24.0625C44.0169 24.0625 41.5625 26.5147 41.5625 29.5312C41.5625 30.135 41.0725 30.625 40.4687 30.625Z" fill="#989898"/>
<path d="M29.5312 30.625C28.9275 30.625 28.4375 30.135 28.4375 29.5312C28.4375 26.5147 25.9831 24.0625 22.9687 24.0625C20.7178 24.0625 18.6637 25.4756 17.8587 27.5756C17.6422 28.14 17.01 28.4244 16.4456 28.2056C15.8812 27.9891 15.599 27.3569 15.8156 26.7925C16.9422 23.8503 19.8187 21.875 22.9687 21.875C27.1906 21.875 30.625 25.3094 30.625 29.5312C30.625 30.135 30.135 30.625 29.5312 30.625Z" fill="#989898"/>
<path d="M35 65.625C18.1125 65.625 4.375 51.8875 4.375 35C4.375 18.1125 18.1125 4.375 35 4.375C51.8875 4.375 65.625 18.1125 65.625 35C65.625 51.8875 51.8875 65.625 35 65.625ZM35 6.5625C19.32 6.5625 6.5625 19.32 6.5625 35C6.5625 50.68 19.32 63.4375 35 63.4375C50.68 63.4375 63.4375 50.68 63.4375 35C63.4375 19.32 50.68 6.5625 35 6.5625Z" fill="#989898"/>
<path d="M35 48.1248C21.945 48.1248 15.7959 40.3745 15.54 40.0442C15.1725 39.5673 15.2578 38.8848 15.7347 38.5129C16.2137 38.1454 16.9006 38.2286 17.2681 38.7054C17.325 38.7754 23.065 45.9373 35 45.9373C46.994 45.9373 52.6728 38.7798 52.7275 38.7054C53.0972 38.2264 53.784 38.1411 54.2631 38.5086C54.74 38.8783 54.8275 39.5651 54.4578 40.042C54.204 40.3745 48.055 48.1248 35 48.1248Z" fill="#989898"/>
<path d="M51.4106 18.5938C51.3187 18.5938 51.229 18.5828 51.1371 18.5588C51.0956 18.5478 46.9875 17.5 43.7521 17.5C43.1484 17.5 42.6584 17.01 42.6584 16.4062C42.6584 15.8025 43.1484 15.3125 43.7521 15.3125C47.2675 15.3125 51.5025 16.3953 51.6818 16.4412C52.2659 16.5922 52.6181 17.1894 52.4671 17.7734C52.3403 18.2678 51.8962 18.5938 51.4106 18.5938Z" fill="#989898"/>
<path d="M18.5938 18.5938C18.106 18.5938 17.6597 18.2656 17.535 17.7691C17.3863 17.1828 17.7406 16.5878 18.3247 16.4412C18.5063 16.3931 22.8025 15.3125 26.25 15.3125C26.8538 15.3125 27.3438 15.8025 27.3438 16.4062C27.3438 17.01 26.8538 17.5 26.25 17.5C23.0803 17.5 18.9044 18.5478 18.8628 18.5588C18.7731 18.5828 18.6835 18.5938 18.5938 18.5938Z" fill="#989898"/>
</svg>
