<svg width="70" height="70" viewBox="0 0 70 70" fill="none" xmlns="http://www.w3.org/2000/svg">
<path d="M60.1562 67.8125H14.2188C13.615 67.8125 13.125 67.3225 13.125 66.7188C13.125 66.115 13.615 65.625 14.2188 65.625H59.0625V7.65625C59.0625 7.0525 59.5525 6.5625 60.1562 6.5625C60.76 6.5625 61.25 7.0525 61.25 7.65625V66.7188C61.25 67.3225 60.76 67.8125 60.1562 67.8125Z" fill="#989898"/>
<path d="M55.7812 63.437H9.84375C9.24 63.437 8.75 62.947 8.75 62.3433V16.4058C8.75 15.802 9.24 15.312 9.84375 15.312C10.4475 15.312 10.9375 15.802 10.9375 16.4058V61.2495H54.6875V4.37451H27.3438C26.74 4.37451 26.25 3.88451 26.25 3.28076C26.25 2.67701 26.74 2.18701 27.3438 2.18701H55.7812C56.385 2.18701 56.875 2.67701 56.875 3.28076V62.3433C56.875 62.947 56.385 63.437 55.7812 63.437Z" fill="#989898"/>
<path d="M22.9687 17.4999H9.88967C9.4478 17.4999 9.04967 17.233 8.88124 16.824C8.71061 16.4171 8.80467 15.9468 9.1153 15.634L22.1944 2.50898C22.5072 2.19179 22.9797 2.1021 23.3865 2.27054C23.7956 2.43898 24.0625 2.83929 24.0625 3.28117V16.4062C24.0625 17.0099 23.5725 17.4999 22.9687 17.4999ZM12.5256 15.3124H21.875V5.92804L12.5256 15.3124Z" fill="#989898"/>
<path d="M16.4062 32.8125H33.9062C34.51 32.8125 35 32.3225 35 31.7188C35 31.115 34.51 30.625 33.9062 30.625H16.4062C15.8025 30.625 15.3125 31.115 15.3125 31.7188C15.3125 32.3225 15.8025 32.8125 16.4062 32.8125Z" fill="#989898"/>
<path d="M16.4062 37.1875H27.3438C27.9475 37.1875 28.4375 36.6975 28.4375 36.0938C28.4375 35.49 27.9475 35 27.3438 35H16.4062C15.8025 35 15.3125 35.49 15.3125 36.0938C15.3125 36.6975 15.8025 37.1875 16.4062 37.1875Z" fill="#989898"/>
<path d="M31.7188 37.1875H49.2188C49.8225 37.1875 50.3125 36.6975 50.3125 36.0938C50.3125 35.49 49.8225 35 49.2188 35H31.7188C31.115 35 30.625 35.49 30.625 36.0938C30.625 36.6975 31.115 37.1875 31.7188 37.1875Z" fill="#989898"/>
<path d="M16.4062 45.9375H31.7188C32.3225 45.9375 32.8125 45.4475 32.8125 44.8438C32.8125 44.24 32.3225 43.75 31.7188 43.75H16.4062C15.8025 43.75 15.3125 44.24 15.3125 44.8438C15.3125 45.4475 15.8025 45.9375 16.4062 45.9375Z" fill="#989898"/>
<path d="M16.4062 41.5625H38.2812C38.885 41.5625 39.375 41.0725 39.375 40.4688C39.375 39.865 38.885 39.375 38.2812 39.375H16.4062C15.8025 39.375 15.3125 39.865 15.3125 40.4688C15.3125 41.0725 15.8025 41.5625 16.4062 41.5625Z" fill="#989898"/>
<path d="M42.6562 41.5625H49.2188C49.8225 41.5625 50.3125 41.0725 50.3125 40.4688C50.3125 39.865 49.8225 39.375 49.2188 39.375H42.6562C42.0525 39.375 41.5625 39.865 41.5625 40.4688C41.5625 41.0725 42.0525 41.5625 42.6562 41.5625Z" fill="#989898"/>
<path d="M38.2812 32.8125H49.2188C49.8225 32.8125 50.3125 32.3225 50.3125 31.7188C50.3125 31.115 49.8225 30.625 49.2188 30.625H38.2812C37.6775 30.625 37.1875 31.115 37.1875 31.7188C37.1875 32.3225 37.6775 32.8125 38.2812 32.8125Z" fill="#989898"/>
<path d="M20.7812 24.0625H49.2188C49.8225 24.0625 50.3125 23.5725 50.3125 22.9688C50.3125 22.365 49.8225 21.875 49.2188 21.875H20.7812C20.1775 21.875 19.6875 22.365 19.6875 22.9688C19.6875 23.5725 20.1775 24.0625 20.7812 24.0625Z" fill="#989898"/>
<path d="M16.4062 28.4375H49.2188C49.8225 28.4375 50.3125 27.9475 50.3125 27.3438C50.3125 26.74 49.8225 26.25 49.2188 26.25H16.4062C15.8025 26.25 15.3125 26.74 15.3125 27.3438C15.3125 27.9475 15.8025 28.4375 16.4062 28.4375Z" fill="#989898"/>
</svg>
