<svg width="70" height="70" viewBox="0 0 70 70" fill="none" xmlns="http://www.w3.org/2000/svg">
<path d="M68.7969 19.3594H51.2969L49.5469 11.4844C49.1094 9.84375 47.6875 8.64062 45.9375 8.64062H24.0625C22.3125 8.64062 20.8906 9.84375 20.5625 11.4844L18.8125 19.3594H15.5312V16.8438C15.5312 15.5313 14.4375 14.4375 13.125 14.4375H7.76562C6.45312 14.4375 5.35938 15.5313 5.35938 16.8438V19.3594H1.20313C0.546875 19.3594 0 19.9063 0 20.5625V57.75C0 59.7188 1.64062 61.3594 3.60937 61.3594H66.3906C68.3594 61.3594 70 59.7188 70 57.75V20.5625C70 19.7969 69.4531 19.3594 68.7969 19.3594ZM22.8594 12.0313C22.9687 11.4844 23.5156 11.0469 24.0625 11.0469H45.9375C46.4844 11.0469 47.0312 11.4844 47.1406 12.0313L48.7812 19.3594H21.2187L22.8594 12.0313ZM7.76562 16.8438H13.125V19.3594H7.76562V16.8438ZM6.5625 21.7656H14.3281H19.7969H50.4219H67.7031V31.2813H44.7344C42.1094 28.9844 38.8281 27.6719 35.1094 27.6719C31.3906 27.6719 28.1094 29.0938 25.4844 31.2813H2.51562V21.7656H6.5625ZM35 29.9688C41.7812 29.9688 47.25 35.4375 47.25 42.2188C47.25 49 41.7812 54.4688 35 54.4688C28.2188 54.4688 22.75 49 22.75 42.2188C22.75 35.4375 28.2188 29.9688 35 29.9688ZM66.3906 58.9531H3.60937C2.95312 58.9531 2.40625 58.4063 2.40625 57.75V33.6875H23.1875C21.4375 36.0938 20.3438 39.0469 20.3438 42.3281C20.3438 50.4219 26.9062 56.9844 35 56.9844C43.0938 56.9844 49.6563 50.4219 49.6563 42.3281C49.6563 39.0469 48.5625 36.0938 46.8125 33.6875H67.5937V57.75C67.5937 58.4063 67.0469 58.9531 66.3906 58.9531Z" fill="#989898"/>
<path d="M56.2188 29.75H61.3594C62.6719 29.75 63.7656 28.6562 63.7656 27.3437V25.9219C63.7656 24.6094 62.6719 23.5156 61.3594 23.5156H56.2188C54.9063 23.5156 53.8125 24.6094 53.8125 25.9219V27.3437C53.8125 28.6562 54.9063 29.75 56.2188 29.75ZM56.2188 25.9219H61.3594V27.3437H56.2188V25.9219Z" fill="#989898"/>
</svg>
