<svg width="70" height="70" viewBox="0 0 70 70" fill="none" xmlns="http://www.w3.org/2000/svg">
<path d="M13.2344 63.4375H56.7656L53.5938 37.1875H64.6406L60.0469 12.0312H41.3438L41.2344 13.0156C41.0156 15.9687 38.5 18.2656 35.5469 18.2656C32.5938 18.2656 30.0781 15.9687 29.8594 13.0156L29.75 12.0312H9.95313L5.35938 36.75H16.4063L13.2344 63.4375ZM7.98438 34.5625L11.8125 14.2188H27.7813C28.5469 17.8281 31.7188 20.5625 35.5469 20.5625C39.2656 20.5625 42.5469 17.8281 43.3125 14.2188H58.2969L62.125 35H53.4844L52.5 26.4688L50.3125 26.6875L54.25 61.25H15.75L19.7969 26.7969L17.6094 26.5781L16.625 34.6719H7.98438V34.5625Z" fill="#989898"/>
</svg>
